<svg width="150" height="26" viewBox="0 0 141 21" fill="#fff" xmlns="http://www.w3.org/2000/svg">
    <path d="M133.49 8.67513H136.556V10.0929C136.878 9.57353 137.284 9.18048 137.76 8.89973C138.236 8.61898 138.782 8.47861 139.412 8.47861C139.496 8.47861 139.58 8.47861 139.678 8.47861C139.776 8.47861 139.888 8.49264 140.014 8.50668V11.4405C139.608 11.244 139.174 11.1317 138.698 11.1317C137.984 11.1317 137.452 11.3422 137.102 11.7634C136.752 12.1845 136.57 12.8021 136.57 13.6163V17.3503H133.504V8.67513H133.49Z" />
    <path d="M39.8301 8.67513H42.9101V17.3783H39.8301V16.4098C39.1721 17.238 38.2901 17.645 37.1701 17.645C36.5401 17.645 35.9521 17.5327 35.4341 17.2941C34.9021 17.0695 34.4401 16.7326 34.0481 16.3255C33.6561 15.9044 33.3481 15.4131 33.1241 14.8516C32.9001 14.2901 32.7881 13.6725 32.7881 12.9987C32.7881 12.381 32.9001 11.7914 33.1101 11.2299C33.3201 10.6684 33.6281 10.1771 34.0061 9.77005C34.3841 9.34892 34.8461 9.02606 35.3781 8.77339C35.9101 8.53475 36.4981 8.40842 37.1421 8.40842C38.2201 8.40842 39.1161 8.78743 39.8301 9.54545V8.67513ZM35.9801 12.9987C35.9801 13.2794 36.0361 13.5461 36.1341 13.7848C36.2321 14.0234 36.3721 14.2339 36.5541 14.4164C36.7221 14.5989 36.9321 14.7393 37.1841 14.8376C37.4221 14.9358 37.6881 14.992 37.9681 14.992C38.2341 14.992 38.5001 14.9358 38.7381 14.8376C38.9761 14.7393 39.1861 14.5989 39.3681 14.4164C39.5361 14.2339 39.6901 14.0234 39.7881 13.7848C39.9001 13.5461 39.9421 13.2934 39.9421 13.0267C39.9421 12.76 39.8861 12.4933 39.7881 12.2547C39.6761 12.016 39.5361 11.8055 39.3681 11.623C39.2001 11.4405 38.9901 11.3001 38.7381 11.2019C38.5001 11.1036 38.2341 11.0475 37.9681 11.0475C37.6881 11.0475 37.4221 11.1036 37.1841 11.2019C36.9461 11.3001 36.7361 11.4405 36.5541 11.623C36.3861 11.8055 36.2461 12.016 36.1341 12.2406C36.0221 12.4793 35.9801 12.7319 35.9801 12.9987Z" />
    <path d="M44.3241 8.67513H47.3901V9.74198C48.2301 8.94184 49.1541 8.53476 50.1901 8.53476C51.4781 8.53476 52.4581 9.08222 53.1301 10.1631C53.8161 9.06818 54.7961 8.52072 56.0701 8.52072C56.4761 8.52072 56.8541 8.57687 57.2181 8.70321C57.5821 8.81551 57.8901 9.01203 58.1421 9.26471C58.4081 9.51738 58.6041 9.85428 58.7581 10.2614C58.9121 10.6684 58.9821 11.1598 58.9821 11.7353V17.3783H55.9161V13.0829C55.9161 12.6477 55.8881 12.2828 55.8181 12.002C55.7621 11.7213 55.6641 11.4967 55.5521 11.3422C55.4401 11.1878 55.3001 11.0755 55.1321 11.0194C54.9781 10.9632 54.8101 10.9352 54.6281 10.9352C53.6481 10.9352 53.1581 11.6511 53.1581 13.0829V17.3783H50.1201V13.0829C50.1201 12.6477 50.0921 12.2828 50.0361 11.988C49.9801 11.6932 49.8961 11.4686 49.7841 11.3001C49.6721 11.1317 49.5321 11.0194 49.3641 10.9492C49.1961 10.893 49.0001 10.8509 48.7761 10.8509C48.5801 10.8509 48.3981 10.879 48.2301 10.9352C48.0621 10.9913 47.9081 11.1036 47.7821 11.2721C47.6561 11.4405 47.5441 11.6651 47.4741 11.9459C47.4041 12.2406 47.3621 12.6056 47.3621 13.0689V17.3643H44.2961V8.67513H44.3241Z" />
    <path d="M63.4761 3.2988V9.54545C64.2041 8.78743 65.1001 8.40842 66.1781 8.40842C66.8221 8.40842 67.4101 8.53476 67.9421 8.77339C68.4741 9.01203 68.9361 9.34893 69.3141 9.75601C69.6921 10.1631 69.9861 10.6544 70.1961 11.2159C70.4061 11.7774 70.5181 12.367 70.5181 12.9987C70.5181 13.6444 70.4061 14.248 70.1821 14.8095C69.9581 15.371 69.6501 15.8623 69.2581 16.2834C68.8661 16.7045 68.4041 17.0274 67.8581 17.2801C67.3261 17.5187 66.7381 17.645 66.1221 17.645C64.9881 17.645 64.1061 17.238 63.4481 16.4098V17.3783H60.3821V3.2988H63.4761ZM67.3401 13.0548C67.3401 12.7881 67.2841 12.5214 67.1861 12.2828C67.0881 12.0441 66.9481 11.8336 66.7661 11.6511C66.5841 11.4686 66.3741 11.3282 66.1361 11.2159C65.8981 11.1036 65.6461 11.0615 65.3521 11.0615C65.0861 11.0615 64.8341 11.1176 64.5961 11.2159C64.3581 11.3142 64.1481 11.4545 63.9801 11.637C63.8121 11.8195 63.6581 12.0301 63.5601 12.2687C63.4481 12.5074 63.4061 12.7741 63.4061 13.0408C63.4061 13.3075 63.4621 13.5602 63.5601 13.7988C63.6581 14.0374 63.7981 14.248 63.9801 14.4164C64.1621 14.5849 64.3721 14.7393 64.6101 14.8376C64.8481 14.9499 65.1141 14.992 65.3801 14.992C65.6461 14.992 65.8981 14.9358 66.1361 14.8376C66.3741 14.7393 66.5841 14.5989 66.7521 14.4164C66.9201 14.234 67.0741 14.0234 67.1721 13.7848C67.2841 13.5602 67.3401 13.3075 67.3401 13.0548Z" />
    <path d="M78.624 8.67513H81.704V17.3783H78.624V16.4098C77.966 17.238 77.084 17.645 75.964 17.645C75.334 17.645 74.746 17.5327 74.228 17.2941C73.696 17.0695 73.234 16.7326 72.842 16.3255C72.45 15.9044 72.142 15.4131 71.918 14.8516C71.694 14.2901 71.582 13.6725 71.582 12.9987C71.582 12.381 71.694 11.7914 71.904 11.2299C72.114 10.6684 72.422 10.1771 72.8 9.77005C73.178 9.34892 73.64 9.02606 74.172 8.77339C74.704 8.53475 75.292 8.40842 75.936 8.40842C77.014 8.40842 77.91 8.78743 78.624 9.54545V8.67513ZM74.774 12.9987C74.774 13.2794 74.83 13.5461 74.928 13.7848C75.026 14.0234 75.166 14.2339 75.348 14.4164C75.516 14.5989 75.726 14.7393 75.978 14.8376C76.216 14.9358 76.482 14.992 76.762 14.992C77.028 14.992 77.294 14.9358 77.532 14.8376C77.77 14.7393 77.98 14.5989 78.162 14.4164C78.33 14.2339 78.484 14.0234 78.582 13.7848C78.694 13.5461 78.736 13.2934 78.736 13.0267C78.736 12.76 78.68 12.4933 78.582 12.2547C78.47 12.016 78.33 11.8055 78.162 11.623C77.994 11.4405 77.784 11.3001 77.532 11.2019C77.294 11.1036 77.028 11.0475 76.762 11.0475C76.482 11.0475 76.216 11.1036 75.978 11.2019C75.74 11.3001 75.53 11.4405 75.348 11.623C75.18 11.8055 75.04 12.016 74.928 12.2406C74.83 12.4793 74.774 12.7319 74.774 12.9987Z" />
    <path d="M89.1941 10.9071C88.6341 10.6123 88.0741 10.4719 87.5421 10.4719C87.2621 10.4719 87.0381 10.5281 86.8561 10.6404C86.6881 10.7527 86.5901 10.9071 86.5901 11.1036C86.5901 11.2019 86.6041 11.2861 86.6321 11.3563C86.6601 11.4124 86.7161 11.4826 86.8141 11.5388C86.9121 11.5949 87.0521 11.6511 87.2341 11.6932C87.4161 11.7353 87.6681 11.7914 87.9761 11.8616C88.8161 12.0301 89.4461 12.3389 89.8661 12.7741C90.2861 13.2092 90.4961 13.7707 90.4961 14.4445C90.4961 14.9499 90.3981 15.4131 90.1881 15.8202C89.9921 16.2273 89.6981 16.5642 89.3481 16.8449C88.9841 17.1257 88.5501 17.3362 88.0461 17.4906C87.5421 17.645 86.9821 17.7152 86.3661 17.7152C85.1901 17.7152 84.042 17.3783 82.894 16.7186L84.014 14.5428C84.868 15.1323 85.6801 15.4271 86.4501 15.4271C86.7301 15.4271 86.9681 15.371 87.1501 15.2446C87.3321 15.1183 87.4161 14.9639 87.4161 14.7674C87.4161 14.6551 87.4021 14.5568 87.3741 14.4866C87.3461 14.4164 87.2901 14.3462 87.1921 14.2901C87.1081 14.234 86.9681 14.1778 86.8001 14.1217C86.6321 14.0655 86.3941 14.0234 86.1141 13.9672C85.162 13.7707 84.5041 13.49 84.1261 13.111C83.7481 12.7319 83.5661 12.2126 83.5661 11.5388C83.5661 11.0475 83.65 10.6123 83.832 10.2192C84.014 9.8262 84.2661 9.50333 84.6161 9.22259C84.9521 8.95587 85.3581 8.74531 85.8481 8.5909C86.3241 8.45053 86.8561 8.3663 87.4441 8.3663C88.3961 8.3663 89.3341 8.54879 90.2301 8.9278L89.1941 10.9071Z" />
    <path d="M97.468 10.9071C96.908 10.6123 96.348 10.4719 95.816 10.4719C95.536 10.4719 95.312 10.5281 95.13 10.6404C94.962 10.7527 94.864 10.9071 94.864 11.1036C94.864 11.2019 94.878 11.2861 94.906 11.3563C94.934 11.4124 94.99 11.4826 95.088 11.5388C95.186 11.5949 95.326 11.6511 95.508 11.6932C95.69 11.7353 95.942 11.7914 96.25 11.8616C97.09 12.0301 97.72 12.3389 98.14 12.7741C98.56 13.2092 98.77 13.7707 98.77 14.4445C98.77 14.9499 98.672 15.4131 98.462 15.8202C98.266 16.2273 97.972 16.5642 97.622 16.8449C97.258 17.1257 96.824 17.3362 96.32 17.4906C95.816 17.645 95.256 17.7152 94.64 17.7152C93.464 17.7152 92.316 17.3783 91.168 16.7186L92.288 14.5428C93.142 15.1323 93.954 15.4271 94.724 15.4271C95.004 15.4271 95.242 15.371 95.424 15.2446C95.606 15.1183 95.69 14.9639 95.69 14.7674C95.69 14.6551 95.676 14.5568 95.648 14.4866C95.62 14.4164 95.564 14.3462 95.466 14.2901C95.382 14.234 95.242 14.1778 95.074 14.1217C94.906 14.0655 94.668 14.0234 94.388 13.9672C93.436 13.7707 92.778 13.49 92.4 13.111C92.022 12.7319 91.84 12.2126 91.84 11.5388C91.84 11.0475 91.924 10.6123 92.106 10.2192C92.288 9.8262 92.54 9.50333 92.89 9.22259C93.226 8.95587 93.632 8.74531 94.122 8.5909C94.598 8.45053 95.13 8.3663 95.718 8.3663C96.67 8.3663 97.608 8.54879 98.504 8.9278L97.468 10.9071Z" />
    <path d="M106.68 8.67513H109.76V17.3783H106.68V16.4098C106.022 17.238 105.14 17.645 104.02 17.645C103.39 17.645 102.802 17.5327 102.284 17.2941C101.752 17.0695 101.29 16.7326 100.898 16.3255C100.506 15.9044 100.198 15.4131 99.9742 14.8516C99.7502 14.2901 99.6382 13.6725 99.6382 12.9987C99.6382 12.381 99.7502 11.7914 99.9602 11.2299C100.17 10.6684 100.478 10.1771 100.856 9.77005C101.234 9.34892 101.696 9.02606 102.228 8.77339C102.76 8.53475 103.348 8.40842 103.992 8.40842C105.07 8.40842 105.966 8.78743 106.68 9.54545V8.67513ZM102.816 12.9987C102.816 13.2794 102.872 13.5461 102.97 13.7848C103.068 14.0234 103.208 14.2339 103.39 14.4164C103.558 14.5989 103.768 14.7393 104.02 14.8376C104.258 14.9358 104.524 14.992 104.804 14.992C105.07 14.992 105.336 14.9358 105.574 14.8376C105.812 14.7393 106.022 14.5989 106.204 14.4164C106.372 14.2339 106.526 14.0234 106.624 13.7848C106.736 13.5461 106.778 13.2934 106.778 13.0267C106.778 12.76 106.722 12.4933 106.624 12.2547C106.512 12.016 106.372 11.8055 106.204 11.623C106.036 11.4405 105.826 11.3001 105.574 11.2019C105.336 11.1036 105.07 11.0475 104.804 11.0475C104.524 11.0475 104.258 11.1036 104.02 11.2019C103.782 11.3001 103.572 11.4405 103.39 11.623C103.222 11.8055 103.082 12.016 102.97 12.2406C102.872 12.4793 102.816 12.7319 102.816 12.9987Z" />
    <path d="M117.852 3.2988H120.932V17.3643H117.852V16.3957C117.194 17.2239 116.312 17.631 115.192 17.631C114.562 17.631 113.974 17.5187 113.456 17.2801C112.924 17.0414 112.462 16.7186 112.07 16.2975C111.678 15.8763 111.37 15.385 111.146 14.8235C110.922 14.262 110.81 13.6444 110.81 12.9987C110.81 12.381 110.908 11.7914 111.118 11.2299C111.328 10.6684 111.622 10.1771 112 9.77005C112.378 9.34893 112.84 9.02607 113.372 8.7734C113.904 8.53476 114.492 8.40842 115.136 8.40842C116.214 8.40842 117.11 8.78743 117.824 9.54545V3.2988H117.852ZM114.002 12.9987C114.002 13.2794 114.058 13.5461 114.156 13.7848C114.254 14.0234 114.394 14.234 114.576 14.4164C114.744 14.5989 114.954 14.7393 115.206 14.8376C115.444 14.9358 115.71 14.992 115.99 14.992C116.256 14.992 116.522 14.9358 116.76 14.8376C116.998 14.7393 117.208 14.5989 117.39 14.4164C117.558 14.234 117.712 14.0234 117.81 13.7848C117.922 13.5461 117.964 13.2934 117.964 13.0267C117.964 12.76 117.908 12.4933 117.81 12.2547C117.698 12.016 117.558 11.8055 117.39 11.623C117.222 11.4405 117.012 11.3001 116.76 11.2019C116.522 11.1036 116.256 11.0475 115.99 11.0475C115.724 11.0475 115.458 11.1036 115.22 11.2019C114.982 11.3001 114.772 11.4405 114.59 11.623C114.422 11.8055 114.268 12.016 114.17 12.2406C114.058 12.4793 114.002 12.732 114.002 12.9987Z" />
    <path d="M121.996 12.9425C121.996 12.2968 122.122 11.6932 122.388 11.1317C122.654 10.5702 123.004 10.0929 123.466 9.67178C123.928 9.2647 124.474 8.9278 125.118 8.7032C125.748 8.46456 126.448 8.35226 127.204 8.35226C127.946 8.35226 128.632 8.46456 129.276 8.7032C129.906 8.94184 130.466 9.25066 130.928 9.67178C131.39 10.0789 131.754 10.5702 132.02 11.1457C132.286 11.7212 132.412 12.3529 132.412 13.0408C132.412 13.7286 132.286 14.3603 132.02 14.9358C131.754 15.5114 131.39 16.0027 130.928 16.4098C130.466 16.8168 129.906 17.1397 129.262 17.3643C128.618 17.5889 127.918 17.7012 127.162 17.7012C126.42 17.7012 125.734 17.5889 125.104 17.3643C124.474 17.1397 123.928 16.8168 123.466 16.3957C123.004 15.9746 122.654 15.4833 122.388 14.8937C122.122 14.3041 121.996 13.6584 121.996 12.9425ZM125.23 12.9846C125.23 13.2794 125.286 13.5461 125.384 13.7848C125.496 14.0234 125.636 14.2339 125.804 14.4164C125.972 14.5989 126.182 14.7393 126.434 14.8376C126.672 14.9358 126.938 14.992 127.204 14.992C127.47 14.992 127.736 14.9358 127.974 14.8376C128.212 14.7393 128.422 14.5989 128.604 14.4164C128.772 14.2339 128.926 14.0234 129.024 13.7848C129.136 13.5461 129.178 13.2794 129.178 12.9987C129.178 12.7319 129.122 12.4652 129.024 12.2266C128.912 11.988 128.772 11.7774 128.604 11.5949C128.436 11.4124 128.226 11.2721 127.974 11.1738C127.736 11.0755 127.47 11.0194 127.204 11.0194C126.938 11.0194 126.672 11.0755 126.434 11.1738C126.196 11.2721 125.986 11.4124 125.804 11.5949C125.636 11.7774 125.482 11.988 125.384 12.2266C125.272 12.4512 125.23 12.7039 125.23 12.9846Z" />
    <path d="M1.84824 21C1.37224 21 0.896238 20.8175 0.546238 20.4525C0.000237713 19.9051 -0.153762 19.0769 0.168238 18.361L8.05024 1.08088C8.34424 0.421123 8.98824 0 9.73024 0C10.4582 0 11.1022 0.421123 11.4102 1.08088L16.5202 12.2968L21.9382 9.81217C22.6522 9.48931 23.4642 9.62968 24.0242 10.1912C24.5702 10.7386 24.7242 11.5668 24.4022 12.2828L21.0702 19.5822C20.7622 20.256 20.1182 20.6631 19.3902 20.6631C18.6622 20.6631 18.0042 20.242 17.7102 19.5822L15.5682 14.8937L2.63224 20.8316C2.38024 20.9438 2.11424 21 1.84824 21ZM9.73024 2.09158L2.05824 18.9365L14.7562 13.111L9.73024 2.09158ZM17.3322 14.0795L19.3762 18.5715L22.5122 11.6932L17.3322 14.0795Z" />
</svg>
