<svg width="140" height="14" viewBox="0 0 140 14" fill="none" xmlns="http://www.w3.org/2000/svg">
<path d="M14.7884 13.5322V0.490295L24.1546 7.01122L14.7884 13.5322Z" fill="#F7F7FA"/>
<path d="M24.1546 7.01122L33.5208 13.5322V0.490295L24.1546 7.01122Z" fill="#F7F7FA"/>
<path fill-rule="evenodd" clip-rule="evenodd" d="M9.58704 13.0283H13.8335L9.27181 0.976517H4.56171L0 13.0283H4.24647L4.69152 11.619H9.142L9.58704 13.0283ZM6.91675 4.55412L8.14061 8.43888H5.69287L6.91675 4.55412Z" fill="#F7F7FA"/>
<path fill-rule="evenodd" clip-rule="evenodd" d="M35.8555 13.0283H43.6252C46.11 13.0283 47.2783 11.4383 47.2783 9.75791C47.2783 8.20399 46.2584 7.01146 44.9233 6.81271C46.1286 6.55974 47.0372 5.5479 47.0372 4.0482C47.0372 2.63884 45.9246 0.976517 43.3656 0.976517H35.8555V13.0283ZM43.2358 4.69867C43.2358 5.13232 42.8835 5.42142 42.494 5.42142H39.6013V4.01206H42.494C42.8835 4.01206 43.2358 4.28308 43.2358 4.69867ZM43.4768 9.23392C43.4768 9.68565 43.1431 9.9928 42.6053 9.9928H39.6013V8.45692H42.6053C43.1431 8.45692 43.4768 8.80023 43.4768 9.23392Z" fill="#F7F7FA"/>
<path fill-rule="evenodd" clip-rule="evenodd" d="M57.5202 13.0283H61.7667L57.2049 0.976517H52.4949L47.9331 13.0283H52.1796L52.6247 11.619H57.0751L57.5202 13.0283ZM54.8499 4.55412L56.0738 8.43888H53.6261L54.8499 4.55412Z" fill="#F7F7FA"/>
<path d="M61.9765 11.3299C63.2931 12.4863 65.0918 13.2452 67.725 13.2452C71.0443 13.2452 73.0655 11.7094 73.0655 9.05324C73.0655 6.07385 70.0242 5.50675 67.9858 5.12667C66.9585 4.9351 66.1859 4.79104 66.1859 4.40957C66.1859 4.1024 66.3899 3.86751 67.1316 3.86751C68.2999 3.86751 69.6906 4.26502 70.7661 5.06004L72.7688 2.47622C71.3596 1.35596 69.5423 0.795831 67.521 0.795831C64.1275 0.795831 62.3845 2.74725 62.3845 4.78901C62.3845 7.97126 65.4779 8.49582 67.5217 8.84239C68.5299 9.01336 69.2827 9.14101 69.2827 9.52302C69.2827 9.9928 68.6151 10.1735 67.9104 10.1735C66.2415 10.1735 64.8507 9.48685 63.9235 8.61955L61.9765 11.3299Z" fill="#F7F7FA"/>
<path d="M73.8317 11.3299C75.1483 12.4863 76.947 13.2452 79.5799 13.2452C82.8994 13.2452 84.9209 11.7094 84.9209 9.05324C84.9209 6.07385 81.8797 5.50675 79.8414 5.12667C78.814 4.9351 78.0414 4.79104 78.0414 4.40957C78.0414 4.1024 78.2452 3.86751 78.9864 3.86751C80.1547 3.86751 81.5461 4.26502 82.621 5.06004L84.6238 2.47622C83.2144 1.35596 81.3976 0.795831 79.3761 0.795831C75.9827 0.795831 74.2397 2.74725 74.2397 4.78901C74.2397 7.97126 77.3331 8.49582 79.3768 8.84239C80.385 9.01336 81.1378 9.14101 81.1378 9.52302C81.1378 9.9928 80.4704 10.1735 79.7658 10.1735C78.0967 10.1735 76.7059 9.48685 75.7787 8.61955L73.8317 11.3299Z" fill="#F7F7FA"/>
<path fill-rule="evenodd" clip-rule="evenodd" d="M94.6991 13.0283H98.9458L94.3841 0.976517H89.6739L85.1122 13.0283H89.3589L89.8038 11.619H94.2542L94.6991 13.0283ZM92.029 4.55412L93.2524 8.43888H90.8048L92.029 4.55412Z" fill="#F7F7FA"/>
<path fill-rule="evenodd" clip-rule="evenodd" d="M100.101 13.0283H105.646C109.521 13.0283 112.414 10.8421 112.414 6.99339C112.414 3.14476 109.521 0.976517 105.627 0.976517H100.101V13.0283ZM108.613 6.99339C108.613 8.51113 107.5 9.84821 105.627 9.84821H103.847V4.15661H105.646C107.648 4.15661 108.613 5.36721 108.613 6.99339Z" fill="#F7F7FA"/>
<path fill-rule="evenodd" clip-rule="evenodd" d="M113.57 7.01146C113.57 10.7155 116.518 13.2452 120.338 13.2452C124.158 13.2452 127.106 10.7155 127.106 7.01146C127.106 3.30738 124.158 0.777764 120.338 0.777764C116.518 0.777764 113.57 3.30738 113.57 7.01146ZM123.305 7.01146C123.305 8.69181 122.137 10.029 120.338 10.029C118.54 10.029 117.371 8.69181 117.371 7.01146C117.371 5.33107 118.54 3.99399 120.338 3.99399C122.137 3.99399 123.305 5.33107 123.305 7.01146Z" fill="#F7F7FA"/>
<path fill-rule="evenodd" clip-rule="evenodd" d="M135.735 13.0283H140L137.756 8.76414C138.739 8.29436 139.981 7.19214 139.981 5.11425C139.981 2.85566 138.423 0.976517 135.531 0.976517H128.929V13.0283H132.676V9.23392H134.029L135.735 13.0283ZM136.18 5.09618C136.18 5.76472 135.587 6.05382 134.956 6.05382H132.676V4.15661H134.956C135.587 4.15661 136.18 4.4457 136.18 5.09618Z" fill="#F7F7FA"/>
</svg>
